<?xml version="1.0" standalone="no"?><!DOCTYPE svg PUBLIC "-//W3C//DTD SVG 1.1//EN" "http://www.w3.org/Graphics/SVG/1.1/DTD/svg11.dtd"><svg t="1689044239303" class="icon" viewBox="0 0 1024 1024" version="1.1" xmlns="http://www.w3.org/2000/svg" p-id="1016" xmlns:xlink="http://www.w3.org/1999/xlink" width="64" height="64"><path d="M511.99992 0c136.759979 0 265.335959 53.255992 362.039943 149.959977C970.743848 246.663961 1023.99984 375.239941 1023.99984 511.99992c0 101.063984-29.999995 199.343969-86.743986 284.231956a39.999994 39.999994 0 1 1-66.50399-44.463993C918.671856 680.087894 943.999853 597.175907 943.999853 511.99992c0-238.207963-193.79197-431.999933-431.999933-431.999932S79.999988 273.791957 79.999988 511.99992s193.79197 431.999933 431.999932 431.999933a431.199933 431.199933 0 0 0 223.479965-62.207991 39.999994 39.999994 0 0 1 41.439994 68.42399A511.18392 511.18392 0 0 1 511.99992 1023.99984c-136.759979 0-265.335959-53.255992-362.039943-149.959977C53.255992 777.335879 0 648.759899 0 511.99992c0-136.759979 53.255992-265.335959 149.959977-362.039943C246.663961 53.255992 375.239941 0 511.99992 0z m0 257.99996c137.847978 0 249.999961 112.151982 249.999961 249.999961S649.847898 757.999882 511.99992 757.999882 261.999959 645.847899 261.999959 507.999921 374.151942 257.99996 511.99992 257.99996z m0 79.999987c-93.735985 0-169.999973 76.263988-169.999973 169.999974S418.263935 677.999894 511.99992 677.999894s169.999973-76.263988 169.999973-169.999973S605.735905 337.999947 511.99992 337.999947z" p-id="1017"></path></svg>